<svg xmlns="http://www.w3.org/2000/svg" width="24" height="24" viewBox="0 0 24 24"><path d="M13 22.35L13.9 21.32L13.05 20.9Q12.63 20.68 12.53 20.2T12.75 19.35L14.5 17.35Q14.63 17.18 14.84 17.09T15.25 17Q15.9 17 16.16 17.57T16 18.65L15.1 19.68L15.95 20.1Q16.38 20.32 16.48 20.8T16.25 21.65L14.5 23.65Q14.38 23.82 14.16 23.91T13.75 24Q13.1 24 12.84 23.43T13 22.35ZM7 22.35L7.9 21.32L7.05 20.9Q6.63 20.68 6.53 20.2T6.75 19.35L8.5 17.35Q8.63 17.18 8.84 17.09T9.25 17Q9.9 17 10.16 17.57T10 18.65L9.1 19.68L9.95 20.1Q10.38 20.32 10.47 20.8T10.25 21.65L8.5 23.65Q8.38 23.82 8.16 23.91T7.75 24Q7.1 24 6.84 23.43T7 22.35ZM7.5 16Q5.22 16 3.61 14.39T2 10.5Q2 8.43 3.38 6.88T6.78 5.05Q7.58 3.63 8.96 2.81T12 2Q14.25 2 15.91 3.44T17.93 7.03Q19.65 7.17 20.82 8.45T22 11.5Q22 13.38 20.69 14.69T17.5 16H7.5Z"/></svg>